<mxfile host="app.diagrams.net" agent="Mozilla/5.0 (Windows NT 10.0; Win64; x64; rv:134.0) Gecko/20100101 Firefox/134.0" version="26.0.8">
  <diagram name="Page-1" id="J1qbVHuRShZGfDNMz38L">
    <mxGraphModel dx="1050" dy="631" grid="1" gridSize="10" guides="1" tooltips="1" connect="1" arrows="1" fold="1" page="1" pageScale="1" pageWidth="850" pageHeight="1100" math="0" shadow="0">
      <root>
        <mxCell id="0" />
        <mxCell id="1" parent="0" />
        <mxCell id="hT8YHegn8Y_aU_DhRsie-3" value="&lt;p style=&quot;margin:0px;margin-top:6px;text-align:center;&quot;&gt;&lt;b&gt;View&lt;/b&gt;&lt;br&gt;&lt;/p&gt;&lt;hr size=&quot;1&quot; style=&quot;border-style:solid;&quot;&gt;&lt;p style=&quot;margin:0px;margin-left:8px;&quot;&gt;&lt;br&gt;&lt;/p&gt;" style="align=left;overflow=fill;html=1;dropTarget=0;whiteSpace=wrap;" vertex="1" parent="1">
          <mxGeometry x="150" y="130" width="180" height="400" as="geometry" />
        </mxCell>
        <mxCell id="hT8YHegn8Y_aU_DhRsie-4" value="" style="shape=component;jettyWidth=8;jettyHeight=4;" vertex="1" parent="hT8YHegn8Y_aU_DhRsie-3">
          <mxGeometry x="1" width="20" height="20" relative="1" as="geometry">
            <mxPoint x="-24" y="4" as="offset" />
          </mxGeometry>
        </mxCell>
        <mxCell id="hT8YHegn8Y_aU_DhRsie-32" style="edgeStyle=orthogonalEdgeStyle;rounded=0;orthogonalLoop=1;jettySize=auto;html=1;exitX=1;exitY=0.75;exitDx=0;exitDy=0;entryX=0;entryY=0.5;entryDx=0;entryDy=0;entryPerimeter=0;endArrow=none;startFill=0;" edge="1" parent="1" source="hT8YHegn8Y_aU_DhRsie-5" target="hT8YHegn8Y_aU_DhRsie-36">
          <mxGeometry relative="1" as="geometry">
            <mxPoint x="390" y="230" as="targetPoint" />
          </mxGeometry>
        </mxCell>
        <mxCell id="hT8YHegn8Y_aU_DhRsie-5" value="Layout" style="shape=module;align=left;spacingLeft=20;align=center;verticalAlign=top;whiteSpace=wrap;html=1;" vertex="1" parent="1">
          <mxGeometry x="175" y="190" width="130" height="50" as="geometry" />
        </mxCell>
        <mxCell id="hT8YHegn8Y_aU_DhRsie-6" value="OutdoorMapScreen" style="shape=module;align=left;spacingLeft=20;align=center;verticalAlign=top;whiteSpace=wrap;html=1;" vertex="1" parent="1">
          <mxGeometry x="175" y="302" width="130" height="50" as="geometry" />
        </mxCell>
        <mxCell id="hT8YHegn8Y_aU_DhRsie-7" value="IndoorMapScreen" style="shape=module;align=left;spacingLeft=20;align=center;verticalAlign=top;whiteSpace=wrap;html=1;" vertex="1" parent="1">
          <mxGeometry x="175" y="420" width="130" height="50" as="geometry" />
        </mxCell>
        <mxCell id="hT8YHegn8Y_aU_DhRsie-8" value="&lt;p style=&quot;margin:0px;margin-top:6px;text-align:center;&quot;&gt;&lt;b&gt;Controller&lt;/b&gt;&lt;br&gt;&lt;/p&gt;&lt;hr size=&quot;1&quot; style=&quot;border-style:solid;&quot;&gt;&lt;p style=&quot;margin:0px;margin-left:8px;&quot;&gt;&lt;br&gt;&lt;/p&gt;" style="align=left;overflow=fill;html=1;dropTarget=0;whiteSpace=wrap;" vertex="1" parent="1">
          <mxGeometry x="540" y="140" width="210" height="380" as="geometry" />
        </mxCell>
        <mxCell id="hT8YHegn8Y_aU_DhRsie-9" value="" style="shape=component;jettyWidth=8;jettyHeight=4;" vertex="1" parent="hT8YHegn8Y_aU_DhRsie-8">
          <mxGeometry x="1" width="20" height="20" relative="1" as="geometry">
            <mxPoint x="-24" y="4" as="offset" />
          </mxGeometry>
        </mxCell>
        <mxCell id="hT8YHegn8Y_aU_DhRsie-10" value="UserController" style="shape=module;align=left;spacingLeft=20;align=center;verticalAlign=top;whiteSpace=wrap;html=1;" vertex="1" parent="1">
          <mxGeometry x="545" y="190" width="135" height="50" as="geometry" />
        </mxCell>
        <mxCell id="hT8YHegn8Y_aU_DhRsie-11" value="OutdoorMapController" style="shape=module;align=left;spacingLeft=20;align=center;verticalAlign=top;whiteSpace=wrap;html=1;" vertex="1" parent="1">
          <mxGeometry x="560" y="341" width="135" height="50" as="geometry" />
        </mxCell>
        <mxCell id="hT8YHegn8Y_aU_DhRsie-12" value="IndoorMapController" style="shape=module;align=left;spacingLeft=20;align=center;verticalAlign=top;whiteSpace=wrap;html=1;" vertex="1" parent="1">
          <mxGeometry x="560" y="432" width="135" height="50" as="geometry" />
        </mxCell>
        <mxCell id="hT8YHegn8Y_aU_DhRsie-18" value="&lt;p style=&quot;margin:0px;margin-top:6px;text-align:center;&quot;&gt;&lt;b&gt;Model&lt;/b&gt;&lt;br&gt;&lt;/p&gt;&lt;hr size=&quot;1&quot; style=&quot;border-style:solid;&quot;&gt;&lt;p style=&quot;margin:0px;margin-left:8px;&quot;&gt;&lt;br&gt;&lt;/p&gt;" style="align=left;overflow=fill;html=1;dropTarget=0;whiteSpace=wrap;" vertex="1" parent="1">
          <mxGeometry x="890" y="130" width="220" height="390" as="geometry" />
        </mxCell>
        <mxCell id="hT8YHegn8Y_aU_DhRsie-19" value="" style="shape=component;jettyWidth=8;jettyHeight=4;" vertex="1" parent="hT8YHegn8Y_aU_DhRsie-18">
          <mxGeometry x="1" width="20" height="20" relative="1" as="geometry">
            <mxPoint x="-24" y="4" as="offset" />
          </mxGeometry>
        </mxCell>
        <mxCell id="hT8YHegn8Y_aU_DhRsie-20" value="User" style="shape=module;align=left;spacingLeft=20;align=center;verticalAlign=top;whiteSpace=wrap;html=1;" vertex="1" parent="1">
          <mxGeometry x="915" y="190" width="155" height="50" as="geometry" />
        </mxCell>
        <mxCell id="hT8YHegn8Y_aU_DhRsie-21" value="Campus Manager" style="shape=module;align=left;spacingLeft=20;align=center;verticalAlign=top;whiteSpace=wrap;html=1;" vertex="1" parent="1">
          <mxGeometry x="915" y="290" width="155" height="50" as="geometry" />
        </mxCell>
        <mxCell id="hT8YHegn8Y_aU_DhRsie-22" value="&lt;div&gt;&lt;br&gt;&lt;/div&gt;&lt;div&gt;Indoor Model&lt;br&gt;&lt;/div&gt;" style="shape=module;align=left;spacingLeft=20;align=center;verticalAlign=top;whiteSpace=wrap;html=1;" vertex="1" parent="1">
          <mxGeometry x="922.5" y="432" width="155" height="50" as="geometry" />
        </mxCell>
        <mxCell id="hT8YHegn8Y_aU_DhRsie-23" value="User" style="shape=cylinder3;whiteSpace=wrap;html=1;boundedLbl=1;backgroundOutline=1;size=15;" vertex="1" parent="1">
          <mxGeometry x="1245" y="80" width="60" height="80" as="geometry" />
        </mxCell>
        <mxCell id="hT8YHegn8Y_aU_DhRsie-24" value="Building" style="shape=cylinder3;whiteSpace=wrap;html=1;boundedLbl=1;backgroundOutline=1;size=15;" vertex="1" parent="1">
          <mxGeometry x="1245" y="210" width="60" height="80" as="geometry" />
        </mxCell>
        <mxCell id="hT8YHegn8Y_aU_DhRsie-25" value="Floor" style="shape=cylinder3;whiteSpace=wrap;html=1;boundedLbl=1;backgroundOutline=1;size=15;" vertex="1" parent="1">
          <mxGeometry x="1245" y="340" width="60" height="80" as="geometry" />
        </mxCell>
        <mxCell id="hT8YHegn8Y_aU_DhRsie-26" value="Room" style="shape=cylinder3;whiteSpace=wrap;html=1;boundedLbl=1;backgroundOutline=1;size=15;" vertex="1" parent="1">
          <mxGeometry x="1245" y="460" width="60" height="80" as="geometry" />
        </mxCell>
        <mxCell id="hT8YHegn8Y_aU_DhRsie-28" style="rounded=0;orthogonalLoop=1;jettySize=auto;html=1;exitX=1;exitY=0.25;exitDx=0;exitDy=0;entryX=1;entryY=0.5;entryDx=0;entryDy=0;entryPerimeter=0;edgeStyle=orthogonalEdgeStyle;endArrow=none;startFill=0;" edge="1" parent="1" source="hT8YHegn8Y_aU_DhRsie-5" target="hT8YHegn8Y_aU_DhRsie-27">
          <mxGeometry relative="1" as="geometry" />
        </mxCell>
        <mxCell id="hT8YHegn8Y_aU_DhRsie-29" style="edgeStyle=orthogonalEdgeStyle;rounded=0;orthogonalLoop=1;jettySize=auto;html=1;exitX=0;exitY=0.5;exitDx=0;exitDy=0;exitPerimeter=0;entryX=0.093;entryY=0.114;entryDx=0;entryDy=0;entryPerimeter=0;endArrow=none;startFill=0;" edge="1" parent="1" source="hT8YHegn8Y_aU_DhRsie-27" target="hT8YHegn8Y_aU_DhRsie-10">
          <mxGeometry relative="1" as="geometry" />
        </mxCell>
        <mxCell id="hT8YHegn8Y_aU_DhRsie-31" value="" style="group" vertex="1" connectable="0" parent="1">
          <mxGeometry x="375" y="180" width="90" height="48" as="geometry" />
        </mxCell>
        <mxCell id="hT8YHegn8Y_aU_DhRsie-27" value="" style="shape=providedRequiredInterface;html=1;verticalLabelPosition=bottom;sketch=0;rotation=-180;" vertex="1" parent="hT8YHegn8Y_aU_DhRsie-31">
          <mxGeometry x="40" width="20" height="20" as="geometry" />
        </mxCell>
        <mxCell id="hT8YHegn8Y_aU_DhRsie-30" value="requestView" style="text;html=1;align=center;verticalAlign=middle;resizable=0;points=[];autosize=1;strokeColor=none;fillColor=none;" vertex="1" parent="hT8YHegn8Y_aU_DhRsie-31">
          <mxGeometry y="18" width="90" height="30" as="geometry" />
        </mxCell>
        <mxCell id="hT8YHegn8Y_aU_DhRsie-36" value="updateView" style="shape=providedRequiredInterface;html=1;verticalLabelPosition=bottom;sketch=0;" vertex="1" parent="1">
          <mxGeometry x="415" y="240" width="20" height="20" as="geometry" />
        </mxCell>
        <mxCell id="hT8YHegn8Y_aU_DhRsie-37" style="edgeStyle=orthogonalEdgeStyle;rounded=0;orthogonalLoop=1;jettySize=auto;html=1;exitX=1;exitY=0.5;exitDx=0;exitDy=0;exitPerimeter=0;entryX=0.086;entryY=0.933;entryDx=0;entryDy=0;entryPerimeter=0;endArrow=none;startFill=0;" edge="1" parent="1" source="hT8YHegn8Y_aU_DhRsie-36" target="hT8YHegn8Y_aU_DhRsie-10">
          <mxGeometry relative="1" as="geometry" />
        </mxCell>
        <mxCell id="hT8YHegn8Y_aU_DhRsie-38" value="" style="group" vertex="1" connectable="0" parent="1">
          <mxGeometry x="375" y="293" width="90" height="48" as="geometry" />
        </mxCell>
        <mxCell id="hT8YHegn8Y_aU_DhRsie-39" value="" style="shape=providedRequiredInterface;html=1;verticalLabelPosition=bottom;sketch=0;rotation=-180;" vertex="1" parent="hT8YHegn8Y_aU_DhRsie-38">
          <mxGeometry x="40" width="20" height="20" as="geometry" />
        </mxCell>
        <mxCell id="hT8YHegn8Y_aU_DhRsie-40" value="requestView" style="text;html=1;align=center;verticalAlign=middle;resizable=0;points=[];autosize=1;strokeColor=none;fillColor=none;" vertex="1" parent="hT8YHegn8Y_aU_DhRsie-38">
          <mxGeometry y="18" width="90" height="30" as="geometry" />
        </mxCell>
        <mxCell id="hT8YHegn8Y_aU_DhRsie-41" value="updateView" style="shape=providedRequiredInterface;html=1;verticalLabelPosition=bottom;sketch=0;" vertex="1" parent="1">
          <mxGeometry x="415" y="352" width="20" height="20" as="geometry" />
        </mxCell>
        <mxCell id="hT8YHegn8Y_aU_DhRsie-42" style="edgeStyle=orthogonalEdgeStyle;rounded=0;orthogonalLoop=1;jettySize=auto;html=1;exitX=1;exitY=0.25;exitDx=0;exitDy=0;entryX=1;entryY=0.5;entryDx=0;entryDy=0;entryPerimeter=0;endArrow=none;startFill=0;" edge="1" parent="1" source="hT8YHegn8Y_aU_DhRsie-6" target="hT8YHegn8Y_aU_DhRsie-39">
          <mxGeometry relative="1" as="geometry" />
        </mxCell>
        <mxCell id="hT8YHegn8Y_aU_DhRsie-43" style="edgeStyle=orthogonalEdgeStyle;rounded=0;orthogonalLoop=1;jettySize=auto;html=1;exitX=1;exitY=0.75;exitDx=0;exitDy=0;entryX=0;entryY=0.5;entryDx=0;entryDy=0;entryPerimeter=0;endArrow=none;startFill=0;" edge="1" parent="1" source="hT8YHegn8Y_aU_DhRsie-6" target="hT8YHegn8Y_aU_DhRsie-41">
          <mxGeometry relative="1" as="geometry" />
        </mxCell>
        <mxCell id="hT8YHegn8Y_aU_DhRsie-44" style="edgeStyle=orthogonalEdgeStyle;rounded=0;orthogonalLoop=1;jettySize=auto;html=1;exitX=0;exitY=0.5;exitDx=0;exitDy=0;exitPerimeter=0;entryX=0.112;entryY=0.493;entryDx=0;entryDy=0;entryPerimeter=0;endArrow=none;startFill=0;" edge="1" parent="1" source="hT8YHegn8Y_aU_DhRsie-39" target="hT8YHegn8Y_aU_DhRsie-11">
          <mxGeometry relative="1" as="geometry">
            <Array as="points">
              <mxPoint x="510" y="303" />
              <mxPoint x="510" y="366" />
            </Array>
          </mxGeometry>
        </mxCell>
        <mxCell id="hT8YHegn8Y_aU_DhRsie-45" style="edgeStyle=orthogonalEdgeStyle;rounded=0;orthogonalLoop=1;jettySize=auto;html=1;exitX=1;exitY=0.5;exitDx=0;exitDy=0;exitPerimeter=0;entryX=0.112;entryY=0.907;entryDx=0;entryDy=0;entryPerimeter=0;endArrow=none;startFill=0;" edge="1" parent="1" source="hT8YHegn8Y_aU_DhRsie-41" target="hT8YHegn8Y_aU_DhRsie-11">
          <mxGeometry relative="1" as="geometry" />
        </mxCell>
        <mxCell id="hT8YHegn8Y_aU_DhRsie-46" value="" style="group" vertex="1" connectable="0" parent="1">
          <mxGeometry x="375" y="408" width="90" height="48" as="geometry" />
        </mxCell>
        <mxCell id="hT8YHegn8Y_aU_DhRsie-47" value="" style="shape=providedRequiredInterface;html=1;verticalLabelPosition=bottom;sketch=0;rotation=-180;" vertex="1" parent="hT8YHegn8Y_aU_DhRsie-46">
          <mxGeometry x="40" width="20" height="20" as="geometry" />
        </mxCell>
        <mxCell id="hT8YHegn8Y_aU_DhRsie-48" value="requestView" style="text;html=1;align=center;verticalAlign=middle;resizable=0;points=[];autosize=1;strokeColor=none;fillColor=none;" vertex="1" parent="hT8YHegn8Y_aU_DhRsie-46">
          <mxGeometry y="18" width="90" height="30" as="geometry" />
        </mxCell>
        <mxCell id="hT8YHegn8Y_aU_DhRsie-49" value="updateView" style="shape=providedRequiredInterface;html=1;verticalLabelPosition=bottom;sketch=0;" vertex="1" parent="1">
          <mxGeometry x="415" y="470" width="20" height="20" as="geometry" />
        </mxCell>
        <mxCell id="hT8YHegn8Y_aU_DhRsie-50" style="edgeStyle=orthogonalEdgeStyle;rounded=0;orthogonalLoop=1;jettySize=auto;html=1;exitX=1;exitY=0.25;exitDx=0;exitDy=0;entryX=0.461;entryY=-0.192;entryDx=0;entryDy=0;entryPerimeter=0;endArrow=none;startFill=0;" edge="1" parent="1" source="hT8YHegn8Y_aU_DhRsie-7" target="hT8YHegn8Y_aU_DhRsie-48">
          <mxGeometry relative="1" as="geometry" />
        </mxCell>
        <mxCell id="hT8YHegn8Y_aU_DhRsie-51" style="edgeStyle=orthogonalEdgeStyle;rounded=0;orthogonalLoop=1;jettySize=auto;html=1;exitX=0;exitY=0.5;exitDx=0;exitDy=0;exitPerimeter=0;entryX=0.092;entryY=0.272;entryDx=0;entryDy=0;entryPerimeter=0;endArrow=none;startFill=0;" edge="1" parent="1" source="hT8YHegn8Y_aU_DhRsie-47" target="hT8YHegn8Y_aU_DhRsie-12">
          <mxGeometry relative="1" as="geometry">
            <Array as="points">
              <mxPoint x="520" y="418" />
              <mxPoint x="520" y="450" />
              <mxPoint x="572" y="450" />
            </Array>
          </mxGeometry>
        </mxCell>
        <mxCell id="hT8YHegn8Y_aU_DhRsie-52" style="edgeStyle=orthogonalEdgeStyle;rounded=0;orthogonalLoop=1;jettySize=auto;html=1;exitX=1;exitY=0.75;exitDx=0;exitDy=0;entryX=0;entryY=0.5;entryDx=0;entryDy=0;entryPerimeter=0;endArrow=none;startFill=0;" edge="1" parent="1" source="hT8YHegn8Y_aU_DhRsie-7" target="hT8YHegn8Y_aU_DhRsie-49">
          <mxGeometry relative="1" as="geometry">
            <Array as="points">
              <mxPoint x="340" y="457" />
              <mxPoint x="340" y="480" />
            </Array>
          </mxGeometry>
        </mxCell>
        <mxCell id="hT8YHegn8Y_aU_DhRsie-53" style="edgeStyle=orthogonalEdgeStyle;rounded=0;orthogonalLoop=1;jettySize=auto;html=1;exitX=1;exitY=0.5;exitDx=0;exitDy=0;exitPerimeter=0;entryX=0.107;entryY=0.893;entryDx=0;entryDy=0;entryPerimeter=0;endArrow=none;startFill=0;" edge="1" parent="1" source="hT8YHegn8Y_aU_DhRsie-49" target="hT8YHegn8Y_aU_DhRsie-12">
          <mxGeometry relative="1" as="geometry">
            <Array as="points">
              <mxPoint x="490" y="480" />
              <mxPoint x="490" y="460" />
              <mxPoint x="559" y="460" />
            </Array>
          </mxGeometry>
        </mxCell>
        <mxCell id="hT8YHegn8Y_aU_DhRsie-54" value="MapsController" style="shape=module;align=left;spacingLeft=20;align=center;verticalAlign=top;whiteSpace=wrap;html=1;" vertex="1" parent="1">
          <mxGeometry x="545" y="252" width="135" height="50" as="geometry" />
        </mxCell>
        <mxCell id="hT8YHegn8Y_aU_DhRsie-55" style="edgeStyle=orthogonalEdgeStyle;rounded=0;orthogonalLoop=1;jettySize=auto;html=1;exitX=1;exitY=0.5;exitDx=0;exitDy=0;entryX=1.001;entryY=0.617;entryDx=0;entryDy=0;entryPerimeter=0;endArrow=none;startFill=0;" edge="1" parent="1" source="hT8YHegn8Y_aU_DhRsie-57" target="hT8YHegn8Y_aU_DhRsie-10">
          <mxGeometry relative="1" as="geometry" />
        </mxCell>
        <mxCell id="hT8YHegn8Y_aU_DhRsie-56" value="" style="edgeStyle=orthogonalEdgeStyle;rounded=0;orthogonalLoop=1;jettySize=auto;html=1;exitX=1;exitY=0.5;exitDx=0;exitDy=0;entryX=1.001;entryY=0.617;entryDx=0;entryDy=0;entryPerimeter=0;endArrow=none;startFill=0;" edge="1" parent="1" source="hT8YHegn8Y_aU_DhRsie-54" target="hT8YHegn8Y_aU_DhRsie-57">
          <mxGeometry relative="1" as="geometry">
            <mxPoint x="680" y="277" as="sourcePoint" />
            <mxPoint x="680" y="221" as="targetPoint" />
          </mxGeometry>
        </mxCell>
        <mxCell id="hT8YHegn8Y_aU_DhRsie-57" value="" style="shape=providedRequiredInterface;html=1;verticalLabelPosition=bottom;sketch=0;" vertex="1" parent="1">
          <mxGeometry x="700" y="210" width="20" height="20" as="geometry" />
        </mxCell>
        <mxCell id="hT8YHegn8Y_aU_DhRsie-58" value="" style="shape=providedRequiredInterface;html=1;verticalLabelPosition=bottom;sketch=0;" vertex="1" parent="1">
          <mxGeometry x="650" y="315" width="20" height="20" as="geometry" />
        </mxCell>
        <mxCell id="hT8YHegn8Y_aU_DhRsie-59" style="edgeStyle=orthogonalEdgeStyle;rounded=0;orthogonalLoop=1;jettySize=auto;html=1;entryX=1;entryY=0.5;entryDx=0;entryDy=0;entryPerimeter=0;endArrow=none;startFill=0;exitX=1.002;exitY=0.14;exitDx=0;exitDy=0;exitPerimeter=0;fillColor=#fa6800;strokeColor=#C73500;" edge="1" parent="1" source="hT8YHegn8Y_aU_DhRsie-11" target="hT8YHegn8Y_aU_DhRsie-58">
          <mxGeometry relative="1" as="geometry">
            <mxPoint x="699" y="357" as="sourcePoint" />
            <Array as="points">
              <mxPoint x="720" y="348" />
              <mxPoint x="720" y="330" />
              <mxPoint x="670" y="330" />
            </Array>
          </mxGeometry>
        </mxCell>
        <mxCell id="hT8YHegn8Y_aU_DhRsie-60" style="edgeStyle=orthogonalEdgeStyle;rounded=0;orthogonalLoop=1;jettySize=auto;html=1;exitX=0.705;exitY=0.008;exitDx=0;exitDy=0;entryX=1;entryY=0.5;entryDx=0;entryDy=0;entryPerimeter=0;endArrow=none;startFill=0;exitPerimeter=0;fillColor=#fa6800;strokeColor=#C73500;" edge="1" parent="1" source="hT8YHegn8Y_aU_DhRsie-12" target="hT8YHegn8Y_aU_DhRsie-58">
          <mxGeometry relative="1" as="geometry">
            <Array as="points">
              <mxPoint x="655" y="420" />
              <mxPoint x="730" y="420" />
              <mxPoint x="730" y="330" />
              <mxPoint x="670" y="330" />
            </Array>
          </mxGeometry>
        </mxCell>
        <mxCell id="hT8YHegn8Y_aU_DhRsie-61" style="edgeStyle=orthogonalEdgeStyle;rounded=0;orthogonalLoop=1;jettySize=auto;html=1;exitX=0;exitY=0.5;exitDx=0;exitDy=0;exitPerimeter=0;endArrow=none;startFill=0;" edge="1" parent="1" source="hT8YHegn8Y_aU_DhRsie-58" target="hT8YHegn8Y_aU_DhRsie-54">
          <mxGeometry relative="1" as="geometry" />
        </mxCell>
        <mxCell id="hT8YHegn8Y_aU_DhRsie-63" style="edgeStyle=orthogonalEdgeStyle;rounded=0;orthogonalLoop=1;jettySize=auto;html=1;exitX=1;exitY=0.25;exitDx=0;exitDy=0;entryX=1;entryY=0.5;entryDx=0;entryDy=0;entryPerimeter=0;endArrow=none;startFill=0;" edge="1" parent="1" source="hT8YHegn8Y_aU_DhRsie-10" target="hT8YHegn8Y_aU_DhRsie-62">
          <mxGeometry relative="1" as="geometry" />
        </mxCell>
        <mxCell id="hT8YHegn8Y_aU_DhRsie-64" style="edgeStyle=orthogonalEdgeStyle;rounded=0;orthogonalLoop=1;jettySize=auto;html=1;exitX=0;exitY=0.5;exitDx=0;exitDy=0;exitPerimeter=0;entryX=0.064;entryY=0.176;entryDx=0;entryDy=0;entryPerimeter=0;endArrow=none;startFill=0;" edge="1" parent="1" source="hT8YHegn8Y_aU_DhRsie-62" target="hT8YHegn8Y_aU_DhRsie-20">
          <mxGeometry relative="1" as="geometry">
            <Array as="points">
              <mxPoint x="860" y="160" />
              <mxPoint x="860" y="180" />
              <mxPoint x="925" y="180" />
            </Array>
          </mxGeometry>
        </mxCell>
        <mxCell id="hT8YHegn8Y_aU_DhRsie-67" value="" style="edgeStyle=orthogonalEdgeStyle;rounded=0;orthogonalLoop=1;jettySize=auto;html=1;exitX=1;exitY=0.5;exitDx=0;exitDy=0;endArrow=none;startFill=0;" edge="1" parent="1" source="hT8YHegn8Y_aU_DhRsie-10">
          <mxGeometry relative="1" as="geometry">
            <mxPoint x="810" y="220" as="targetPoint" />
            <mxPoint x="680" y="215" as="sourcePoint" />
            <Array as="points">
              <mxPoint x="770" y="215" />
              <mxPoint x="770" y="218" />
            </Array>
          </mxGeometry>
        </mxCell>
        <mxCell id="hT8YHegn8Y_aU_DhRsie-68" style="edgeStyle=orthogonalEdgeStyle;rounded=0;orthogonalLoop=1;jettySize=auto;html=1;entryX=0.082;entryY=0.921;entryDx=0;entryDy=0;entryPerimeter=0;endArrow=none;startFill=0;exitX=1;exitY=0.5;exitDx=0;exitDy=0;exitPerimeter=0;" edge="1" parent="1" source="hT8YHegn8Y_aU_DhRsie-74" target="hT8YHegn8Y_aU_DhRsie-20">
          <mxGeometry relative="1" as="geometry">
            <mxPoint x="850" y="220" as="sourcePoint" />
          </mxGeometry>
        </mxCell>
        <mxCell id="hT8YHegn8Y_aU_DhRsie-73" value="" style="group" vertex="1" connectable="0" parent="1">
          <mxGeometry x="805" y="150" width="50" height="48" as="geometry" />
        </mxCell>
        <mxCell id="hT8YHegn8Y_aU_DhRsie-62" value="" style="shape=providedRequiredInterface;html=1;verticalLabelPosition=bottom;sketch=0;rotation=-180;" vertex="1" parent="hT8YHegn8Y_aU_DhRsie-73">
          <mxGeometry x="15" width="20" height="20" as="geometry" />
        </mxCell>
        <mxCell id="hT8YHegn8Y_aU_DhRsie-72" value="fetch" style="text;html=1;align=center;verticalAlign=middle;resizable=0;points=[];autosize=1;strokeColor=none;fillColor=none;" vertex="1" parent="hT8YHegn8Y_aU_DhRsie-73">
          <mxGeometry y="18" width="50" height="30" as="geometry" />
        </mxCell>
        <mxCell id="hT8YHegn8Y_aU_DhRsie-74" value="update" style="shape=providedRequiredInterface;html=1;verticalLabelPosition=bottom;sketch=0;" vertex="1" parent="1">
          <mxGeometry x="810" y="210" width="20" height="20" as="geometry" />
        </mxCell>
        <mxCell id="hT8YHegn8Y_aU_DhRsie-79" value="" style="group" vertex="1" connectable="0" parent="1">
          <mxGeometry x="810" y="290" width="50" height="48" as="geometry" />
        </mxCell>
        <mxCell id="hT8YHegn8Y_aU_DhRsie-80" value="" style="shape=providedRequiredInterface;html=1;verticalLabelPosition=bottom;sketch=0;rotation=-180;" vertex="1" parent="hT8YHegn8Y_aU_DhRsie-79">
          <mxGeometry x="15" width="20" height="20" as="geometry" />
        </mxCell>
        <mxCell id="hT8YHegn8Y_aU_DhRsie-81" value="fetch" style="text;html=1;align=center;verticalAlign=middle;resizable=0;points=[];autosize=1;strokeColor=none;fillColor=none;" vertex="1" parent="hT8YHegn8Y_aU_DhRsie-79">
          <mxGeometry y="18" width="50" height="30" as="geometry" />
        </mxCell>
        <mxCell id="hT8YHegn8Y_aU_DhRsie-82" value="update" style="shape=providedRequiredInterface;html=1;verticalLabelPosition=bottom;sketch=0;" vertex="1" parent="1">
          <mxGeometry x="825" y="352" width="20" height="20" as="geometry" />
        </mxCell>
        <mxCell id="hT8YHegn8Y_aU_DhRsie-83" style="edgeStyle=orthogonalEdgeStyle;rounded=0;orthogonalLoop=1;jettySize=auto;html=1;exitX=1;exitY=0.5;exitDx=0;exitDy=0;entryX=1;entryY=0.5;entryDx=0;entryDy=0;entryPerimeter=0;endArrow=none;startFill=0;fillColor=#b0e3e6;strokeColor=#0e8088;" edge="1" parent="1" source="hT8YHegn8Y_aU_DhRsie-11" target="hT8YHegn8Y_aU_DhRsie-80">
          <mxGeometry relative="1" as="geometry">
            <Array as="points">
              <mxPoint x="695" y="370" />
              <mxPoint x="790" y="370" />
              <mxPoint x="790" y="300" />
            </Array>
          </mxGeometry>
        </mxCell>
        <mxCell id="hT8YHegn8Y_aU_DhRsie-84" style="edgeStyle=orthogonalEdgeStyle;rounded=0;orthogonalLoop=1;jettySize=auto;html=1;exitX=0;exitY=0.5;exitDx=0;exitDy=0;exitPerimeter=0;entryX=0.077;entryY=0.133;entryDx=0;entryDy=0;entryPerimeter=0;endArrow=none;startFill=0;" edge="1" parent="1" source="hT8YHegn8Y_aU_DhRsie-80" target="hT8YHegn8Y_aU_DhRsie-21">
          <mxGeometry relative="1" as="geometry" />
        </mxCell>
        <mxCell id="hT8YHegn8Y_aU_DhRsie-85" style="edgeStyle=orthogonalEdgeStyle;rounded=0;orthogonalLoop=1;jettySize=auto;html=1;entryX=1.007;entryY=0.927;entryDx=0;entryDy=0;entryPerimeter=0;endArrow=none;startFill=0;exitX=0;exitY=0.5;exitDx=0;exitDy=0;exitPerimeter=0;" edge="1" parent="1" source="hT8YHegn8Y_aU_DhRsie-82" target="hT8YHegn8Y_aU_DhRsie-11">
          <mxGeometry relative="1" as="geometry">
            <Array as="points">
              <mxPoint x="825" y="360" />
              <mxPoint x="800" y="360" />
              <mxPoint x="800" y="387" />
            </Array>
          </mxGeometry>
        </mxCell>
        <mxCell id="hT8YHegn8Y_aU_DhRsie-86" style="edgeStyle=orthogonalEdgeStyle;rounded=0;orthogonalLoop=1;jettySize=auto;html=1;exitX=1;exitY=0.5;exitDx=0;exitDy=0;exitPerimeter=0;entryX=0.146;entryY=1.087;entryDx=0;entryDy=0;entryPerimeter=0;endArrow=none;startFill=0;" edge="1" parent="1" source="hT8YHegn8Y_aU_DhRsie-82" target="hT8YHegn8Y_aU_DhRsie-21">
          <mxGeometry relative="1" as="geometry" />
        </mxCell>
        <mxCell id="hT8YHegn8Y_aU_DhRsie-87" value="" style="group" vertex="1" connectable="0" parent="1">
          <mxGeometry x="800" y="420" width="50" height="48" as="geometry" />
        </mxCell>
        <mxCell id="hT8YHegn8Y_aU_DhRsie-88" value="" style="shape=providedRequiredInterface;html=1;verticalLabelPosition=bottom;sketch=0;rotation=-180;" vertex="1" parent="hT8YHegn8Y_aU_DhRsie-87">
          <mxGeometry x="15" width="20" height="20" as="geometry" />
        </mxCell>
        <mxCell id="hT8YHegn8Y_aU_DhRsie-89" value="fetch" style="text;html=1;align=center;verticalAlign=middle;resizable=0;points=[];autosize=1;strokeColor=none;fillColor=none;" vertex="1" parent="hT8YHegn8Y_aU_DhRsie-87">
          <mxGeometry y="18" width="50" height="30" as="geometry" />
        </mxCell>
        <mxCell id="hT8YHegn8Y_aU_DhRsie-90" value="update" style="shape=providedRequiredInterface;html=1;verticalLabelPosition=bottom;sketch=0;" vertex="1" parent="1">
          <mxGeometry x="815" y="482" width="20" height="20" as="geometry" />
        </mxCell>
        <mxCell id="hT8YHegn8Y_aU_DhRsie-91" style="edgeStyle=orthogonalEdgeStyle;rounded=0;orthogonalLoop=1;jettySize=auto;html=1;exitX=1;exitY=0.5;exitDx=0;exitDy=0;entryX=1;entryY=0.5;entryDx=0;entryDy=0;entryPerimeter=0;endArrow=none;startFill=0;" edge="1" parent="1" source="hT8YHegn8Y_aU_DhRsie-12" target="hT8YHegn8Y_aU_DhRsie-88">
          <mxGeometry relative="1" as="geometry">
            <Array as="points">
              <mxPoint x="695" y="455" />
              <mxPoint x="800" y="455" />
              <mxPoint x="800" y="430" />
            </Array>
          </mxGeometry>
        </mxCell>
        <mxCell id="hT8YHegn8Y_aU_DhRsie-92" style="edgeStyle=orthogonalEdgeStyle;rounded=0;orthogonalLoop=1;jettySize=auto;html=1;entryX=0.998;entryY=0.933;entryDx=0;entryDy=0;entryPerimeter=0;endArrow=none;startFill=0;" edge="1" parent="1" source="hT8YHegn8Y_aU_DhRsie-90" target="hT8YHegn8Y_aU_DhRsie-12">
          <mxGeometry relative="1" as="geometry">
            <Array as="points">
              <mxPoint x="780" y="492" />
              <mxPoint x="780" y="479" />
            </Array>
          </mxGeometry>
        </mxCell>
        <mxCell id="hT8YHegn8Y_aU_DhRsie-93" style="edgeStyle=orthogonalEdgeStyle;rounded=0;orthogonalLoop=1;jettySize=auto;html=1;exitX=0;exitY=0.5;exitDx=0;exitDy=0;exitPerimeter=0;entryX=0.063;entryY=0.133;entryDx=0;entryDy=0;entryPerimeter=0;endArrow=none;startFill=0;" edge="1" parent="1" source="hT8YHegn8Y_aU_DhRsie-88" target="hT8YHegn8Y_aU_DhRsie-22">
          <mxGeometry relative="1" as="geometry" />
        </mxCell>
        <mxCell id="hT8YHegn8Y_aU_DhRsie-94" style="edgeStyle=orthogonalEdgeStyle;rounded=0;orthogonalLoop=1;jettySize=auto;html=1;entryX=0.07;entryY=0.947;entryDx=0;entryDy=0;entryPerimeter=0;endArrow=none;startFill=0;" edge="1" parent="1" source="hT8YHegn8Y_aU_DhRsie-90" target="hT8YHegn8Y_aU_DhRsie-22">
          <mxGeometry relative="1" as="geometry" />
        </mxCell>
        <mxCell id="hT8YHegn8Y_aU_DhRsie-95" style="edgeStyle=orthogonalEdgeStyle;rounded=0;orthogonalLoop=1;jettySize=auto;html=1;exitX=1;exitY=0.25;exitDx=0;exitDy=0;entryX=1;entryY=0.5;entryDx=0;entryDy=0;entryPerimeter=0;fillColor=#b0e3e6;strokeColor=#0e8088;endArrow=none;startFill=0;" edge="1" parent="1" source="hT8YHegn8Y_aU_DhRsie-12" target="hT8YHegn8Y_aU_DhRsie-80">
          <mxGeometry relative="1" as="geometry">
            <Array as="points">
              <mxPoint x="695" y="440" />
              <mxPoint x="790" y="440" />
              <mxPoint x="790" y="300" />
            </Array>
          </mxGeometry>
        </mxCell>
        <mxCell id="hT8YHegn8Y_aU_DhRsie-96" style="edgeStyle=orthogonalEdgeStyle;rounded=0;orthogonalLoop=1;jettySize=auto;html=1;exitX=1;exitY=0.5;exitDx=0;exitDy=0;entryX=-0.001;entryY=0.735;entryDx=0;entryDy=0;entryPerimeter=0;endArrow=none;startFill=0;" edge="1" parent="1" source="hT8YHegn8Y_aU_DhRsie-20" target="hT8YHegn8Y_aU_DhRsie-23">
          <mxGeometry relative="1" as="geometry">
            <Array as="points">
              <mxPoint x="1160" y="215" />
              <mxPoint x="1160" y="139" />
            </Array>
          </mxGeometry>
        </mxCell>
        <mxCell id="hT8YHegn8Y_aU_DhRsie-97" style="edgeStyle=orthogonalEdgeStyle;rounded=0;orthogonalLoop=1;jettySize=auto;html=1;exitX=1;exitY=0.5;exitDx=0;exitDy=0;entryX=0;entryY=0.5;entryDx=0;entryDy=0;entryPerimeter=0;endArrow=none;startFill=0;" edge="1" parent="1" source="hT8YHegn8Y_aU_DhRsie-21" target="hT8YHegn8Y_aU_DhRsie-24">
          <mxGeometry relative="1" as="geometry" />
        </mxCell>
        <mxCell id="hT8YHegn8Y_aU_DhRsie-98" style="edgeStyle=orthogonalEdgeStyle;rounded=0;orthogonalLoop=1;jettySize=auto;html=1;entryX=0;entryY=0;entryDx=0;entryDy=52.5;entryPerimeter=0;exitX=1;exitY=0.25;exitDx=0;exitDy=0;endArrow=none;startFill=0;" edge="1" parent="1" source="hT8YHegn8Y_aU_DhRsie-22" target="hT8YHegn8Y_aU_DhRsie-24">
          <mxGeometry relative="1" as="geometry">
            <Array as="points">
              <mxPoint x="1180" y="445" />
              <mxPoint x="1180" y="320" />
              <mxPoint x="1220" y="320" />
              <mxPoint x="1220" y="263" />
            </Array>
          </mxGeometry>
        </mxCell>
        <mxCell id="hT8YHegn8Y_aU_DhRsie-99" style="edgeStyle=orthogonalEdgeStyle;rounded=0;orthogonalLoop=1;jettySize=auto;html=1;exitX=1;exitY=0.75;exitDx=0;exitDy=0;entryX=0;entryY=0;entryDx=0;entryDy=52.5;entryPerimeter=0;endArrow=none;startFill=0;" edge="1" parent="1" source="hT8YHegn8Y_aU_DhRsie-22" target="hT8YHegn8Y_aU_DhRsie-25">
          <mxGeometry relative="1" as="geometry">
            <Array as="points">
              <mxPoint x="1078" y="460" />
              <mxPoint x="1200" y="460" />
              <mxPoint x="1200" y="393" />
            </Array>
          </mxGeometry>
        </mxCell>
        <mxCell id="hT8YHegn8Y_aU_DhRsie-100" style="edgeStyle=orthogonalEdgeStyle;rounded=0;orthogonalLoop=1;jettySize=auto;html=1;exitX=1;exitY=0.75;exitDx=0;exitDy=0;entryX=0;entryY=0;entryDx=0;entryDy=52.5;entryPerimeter=0;endArrow=none;startFill=0;" edge="1" parent="1" source="hT8YHegn8Y_aU_DhRsie-22" target="hT8YHegn8Y_aU_DhRsie-26">
          <mxGeometry relative="1" as="geometry">
            <Array as="points">
              <mxPoint x="1180" y="470" />
              <mxPoint x="1180" y="513" />
            </Array>
          </mxGeometry>
        </mxCell>
      </root>
    </mxGraphModel>
  </diagram>
</mxfile>
